<svg xmlns="http://www.w3.org/2000/svg" width="124" height="124" viewBox="0 0 124 124">
  <g id="Grupo_1191713" data-name="Grupo 1191713" transform="translate(6901.917 6321.548)">
    <g id="Grupo_1191711" data-name="Grupo 1191711" transform="translate(-7638.917 -14283)">
      <g id="Grupo_1190813" data-name="Grupo 1190813" transform="translate(-365.223 4775)">
        <circle id="Elipse_11474" data-name="Elipse 11474" cx="62" cy="62" r="62" transform="translate(1102.223 3186.452)" fill="#fff"/>
      </g>
    </g>
    <g id="reserva_3_" data-name="reserva (3)" transform="translate(-6877.151 -6295.708)">
      <path id="Trazado_1093801" data-name="Trazado 1093801" d="M55.3,33.333a19.128,19.128,0,0,0-7.787,1.648V17.223a1.374,1.374,0,0,0-1.374-1.373H44.393V11.657a1.373,1.373,0,0,0-1.373-1.373H39.951V8.639a1.373,1.373,0,0,0-2.747,0v1.645H34.052a1.374,1.374,0,0,0-1.373,1.373v4.192H30.845V10.407a1.373,1.373,0,0,0-1.373-1.373h-3.53V4.766a1.373,1.373,0,0,0-1.373-1.373h-7.9V.881a1.374,1.374,0,0,0-2.747,0V3.393H6.358A1.373,1.373,0,0,0,4.984,4.766V9.034H1.455A1.373,1.373,0,0,0,.081,10.407V60.821a1.374,1.374,0,0,0,1.373,1.373H38.63A19.246,19.246,0,1,0,55.3,33.333ZM7.731,6.139H23.195V9.034H7.731ZM19.692,59.447H16.673V51.038h3.019Zm-5.767,0H11.233V51.038h2.693Zm14.172,0H22.439V49.665a1.373,1.373,0,0,0-1.373-1.373H9.859a1.373,1.373,0,0,0-1.373,1.373v9.783H2.829V11.78H28.1Zm7.329-46.417h6.22v2.819h-6.22ZM30.845,59.447V18.6H44.768V36.48A19.379,19.379,0,0,0,41.986,38.7a1.38,1.38,0,0,0-.416-.065H34.112a1.374,1.374,0,0,0,0,2.747h5.547a19.268,19.268,0,0,0-2.029,3.58H34.112a1.373,1.373,0,1,0,0,2.747H36.68a19.139,19.139,0,0,0-.609,4.08H34.112a1.373,1.373,0,1,0,0,2.747h2.039a19.1,19.1,0,0,0,1.169,4.917ZM55.3,69.081a16.5,16.5,0,1,1,16.5-16.5,16.5,16.5,0,0,1-16.5,16.5Zm0,0" transform="translate(-0.081 0.493)" fill="#20849e"/>
      <path id="Trazado_1093802" data-name="Trazado 1093802" d="M47.944,198.235H64.592a1.374,1.374,0,0,0,0-2.747H47.944a1.374,1.374,0,0,0,0,2.747Zm0,0" transform="translate(-40.883 -171.514)" fill="#20849e"/>
      <path id="Trazado_1093803" data-name="Trazado 1093803" d="M47.944,260.841H64.592a1.374,1.374,0,0,0,0-2.747H47.944a1.374,1.374,0,0,0,0,2.747Zm0,0" transform="translate(-40.883 -226.462)" fill="#20849e"/>
      <path id="Trazado_1093804" data-name="Trazado 1093804" d="M47.944,323.449H64.592a1.373,1.373,0,1,0,0-2.747H47.944a1.373,1.373,0,1,0,0,2.747Zm0,0" transform="translate(-40.883 -281.412)" fill="#20849e"/>
      <path id="Trazado_1093805" data-name="Trazado 1093805" d="M47.944,135.629H64.592a1.373,1.373,0,1,0,0-2.747H47.944a1.373,1.373,0,1,0,0,2.747Zm0,0" transform="translate(-40.883 -116.568)" fill="#20849e"/>
      <path id="Trazado_1093806" data-name="Trazado 1093806" d="M268.424,266.289h7.159a1.373,1.373,0,0,0,0-2.747h-7.159a1.373,1.373,0,0,0,0,2.747Zm0,0" transform="translate(-234.393 -231.245)" fill="#20849e"/>
      <path id="Trazado_1093807" data-name="Trazado 1093807" d="M268.424,211.845h7.159a1.374,1.374,0,0,0,0-2.747h-7.159a1.374,1.374,0,0,0,0,2.747Zm0,0" transform="translate(-234.393 -183.46)" fill="#20849e"/>
      <path id="Trazado_1093808" data-name="Trazado 1093808" d="M378.314,358.255a9.636,9.636,0,1,0-1.942,1.942l4.376,4.377a1.374,1.374,0,0,0,1.943-1.942Zm-14.585-5.764a6.879,6.879,0,1,1,11.838,4.76,1.4,1.4,0,0,0-.2.2,6.874,6.874,0,0,1-11.639-4.959Zm0,0" transform="translate(-316.817 -300.847)" fill="#20849e"/>
    </g>
  </g>
</svg>
